<svg version="1.2" xmlns="http://www.w3.org/2000/svg" viewBox="0 0 250 144" width="250" height="250">
    <title>LOGO_BTRCONSULTING_20251</title>
    <defs>
        <linearGradient id="g1" x2="1" gradientUnits="userSpaceOnUse" gradientTransform="matrix(115.438,0,0,32.262,144.261,6.904)">
            <stop offset="0" stop-color="#ab2088"/>
            <stop offset=".25" stop-color="#ec2993"/>
            <stop offset=".5" stop-color="#ed2951"/>
            <stop offset=".75" stop-color="#f05c28"/>
            <stop offset="1" stop-color="#f6be26"/>
        </linearGradient>
        <linearGradient id="g2" x2="1" gradientUnits="userSpaceOnUse" gradientTransform="matrix(122.131,0,0,34.133,119,30.564)">
            <stop offset="0" stop-color="#ab2088"/>
            <stop offset=".25" stop-color="#ec2993"/>
            <stop offset=".5" stop-color="#ed2951"/>
            <stop offset=".75" stop-color="#f05c28"/>
            <stop offset="1" stop-color="#f6be26"/>
        </linearGradient>
        <linearGradient id="g3" x2="1" gradientUnits="userSpaceOnUse" gradientTransform="matrix(127.437,0,0,26.701,106.891,28.84)">
            <stop offset="0" stop-color="#ab2088"/>
            <stop offset=".25" stop-color="#ec2993"/>
            <stop offset=".5" stop-color="#ed2951"/>
            <stop offset=".75" stop-color="#f05c28"/>
            <stop offset="1" stop-color="#f6be26"/>
        </linearGradient>
        <linearGradient id="g4" x2="1" gradientUnits="userSpaceOnUse" gradientTransform="matrix(127.397,0,0,390.803,106.89,58.075)">
            <stop offset="0" stop-color="#ab2088"/>
            <stop offset=".25" stop-color="#ec2993"/>
            <stop offset=".5" stop-color="#ed2951"/>
            <stop offset=".75" stop-color="#f05c28"/>
            <stop offset="1" stop-color="#f6be26"/>
        </linearGradient>
        <linearGradient id="g5" x2="1" gradientUnits="userSpaceOnUse" gradientTransform="matrix(127.437,0,0,114.972,106.891,56.837)">
            <stop offset="0" stop-color="#ab2088"/>
            <stop offset=".25" stop-color="#ec2993"/>
            <stop offset=".5" stop-color="#ed2951"/>
            <stop offset=".75" stop-color="#f05c28"/>
            <stop offset="1" stop-color="#f6be26"/>
        </linearGradient>
        <linearGradient id="g6" x2="1" gradientUnits="userSpaceOnUse" gradientTransform="matrix(124.262,0,0,43.79,95.133,43.935)">
            <stop offset="0" stop-color="#ab2088"/>
            <stop offset=".25" stop-color="#ec2993"/>
            <stop offset=".5" stop-color="#ed2951"/>
            <stop offset=".75" stop-color="#f05c28"/>
            <stop offset="1" stop-color="#f6be26"/>
        </linearGradient>
        <linearGradient id="g7" x2="1" gradientUnits="userSpaceOnUse" gradientTransform="matrix(124.262,0,0,150.128,95.133,98.011)">
            <stop offset="0" stop-color="#ab2088"/>
            <stop offset=".25" stop-color="#ec2993"/>
            <stop offset=".5" stop-color="#ed2951"/>
            <stop offset=".75" stop-color="#f05c28"/>
            <stop offset="1" stop-color="#f6be26"/>
        </linearGradient>
        <linearGradient id="g8" x2="1" gradientUnits="userSpaceOnUse" gradientTransform="matrix(127.437,0,0,63.627,106.891,52.216)">
            <stop offset="0" stop-color="#ab2088"/>
            <stop offset=".25" stop-color="#ec2993"/>
            <stop offset=".5" stop-color="#ed2951"/>
            <stop offset=".75" stop-color="#f05c28"/>
            <stop offset="1" stop-color="#f6be26"/>
        </linearGradient>
        <linearGradient id="g9" x2="1" gradientUnits="userSpaceOnUse" gradientTransform="matrix(124.262,0,0,62.042,95.133,52.216)">
            <stop offset="0" stop-color="#ab2088"/>
            <stop offset=".25" stop-color="#ec2993"/>
            <stop offset=".5" stop-color="#ed2951"/>
            <stop offset=".75" stop-color="#f05c28"/>
            <stop offset="1" stop-color="#f6be26"/>
        </linearGradient>
        <clipPath clipPathUnits="userSpaceOnUse" id="cp1">
            <path d="m139.6 28.73q-2.04 0.14-4.11 0.45c-20.41 3.11-38.31 19.26-53.34 48.05 1.29 0.94 3.75 2.83 3.75 2.83l2.93 2.35c0 0 2.5 2.09 3.68 3.13 12.36-29.42 28.39-46.95 47.78-52.13 24.58-1.36 45.59 18.43 51.35 24.4 1.24-0.99 3.66-2.95 3.66-2.95l4.62-3.82c0 0 2.42-2.04 3.59-3.06-3.46-3.05-24.84-20.91-50.62-20.91-4.33 0-8.78 0.5-13.29 1.66z"/>
        </clipPath>
        <linearGradient id="g10" x2="1" gradientUnits="userSpaceOnUse" gradientTransform="matrix(121.362,0,0,58.469,82.152,85.537)">
            <stop offset="0" stop-color="#ab2088"/>
            <stop offset=".25" stop-color="#ec2993"/>
            <stop offset=".5" stop-color="#ed2951"/>
            <stop offset=".75" stop-color="#f05c28"/>
            <stop offset="1" stop-color="#f6be26"/>
        </linearGradient>
        <clipPath clipPathUnits="userSpaceOnUse" id="cp2">
            <path d="m131.3 29.41l0.03 0.03q-1.21 0.06-2.41 0.18-0.97-0.1-1.97-0.16h0.03c-20.14-1.13-40.09 11.67-59.56 38.01 1.27 0.81 3.94 2.49 3.94 2.49l3.68 2.37c0 0 2.6 1.73 3.84 2.58 15.53-24.92 32.29-38.56 49.94-40.58 22.85 2.57 39.59 24.99 46.11 35.24 1.59-1.01 3.98-2.44 3.98-2.44l4.52-2.97c0 0 2.5-1.91 3.7-2.83-6.6-8.59-26.99-31.96-53.74-31.96q-1.04 0-2.09 0.04z"/>
        </clipPath>
        <linearGradient id="g11" x2="1" gradientUnits="userSpaceOnUse" gradientTransform="matrix(119.704,0,0,46.575,67.425,74.907)">
            <stop offset="0" stop-color="#ab2088"/>
            <stop offset=".25" stop-color="#ec2993"/>
            <stop offset=".5" stop-color="#ed2951"/>
            <stop offset=".75" stop-color="#f05c28"/>
            <stop offset="1" stop-color="#f6be26"/>
        </linearGradient>
        <clipPath clipPathUnits="userSpaceOnUse" id="cp3">
            <path d="m51.22 56.98c1.29 0.9 3.94 2.65 3.94 2.65l4.28 2.78c0 0 2.62 1.66 3.98 2.53 19.07-21.8 37.33-32.38 54.41-31.5 22.71 6.46 36.1 32.97 41.78 47.2 1.31-1.06 3.84-3.04 3.84-3.04l3.57-2.62c0 0 2.64-1.89 3.86-2.72-6.88-13.48-23.05-39-48.3-43.03v-0.02q-2.02-0.33-4.06-0.45-0.19-0.05-0.38-0.11v0.03q-5.31-1.38-10.85-1.38c-17.2 0-36 9.96-56.07 29.68z"/>
        </clipPath>
        <linearGradient id="g12" x2="1" gradientUnits="userSpaceOnUse" gradientTransform="matrix(119.658,0,0,53.337,51.225,80.637)">
            <stop offset="0" stop-color="#ab2088"/>
            <stop offset=".25" stop-color="#ec2993"/>
            <stop offset=".5" stop-color="#ed2951"/>
            <stop offset=".75" stop-color="#f05c28"/>
            <stop offset="1" stop-color="#f6be26"/>
        </linearGradient>
        <clipPath clipPathUnits="userSpaceOnUse" id="cp4">
            <path d="m35.3 44.28c1.24 1.13 3.61 3.18 3.61 3.18l4.19 3.49c0 0 2.53 1.98 3.77 2.92 22.7-18.77 42.79-26.53 59.87-23.07q0.4 0.16 0.79 0.34c24.33 11.14 34.5 44.46 38.29 62.29 1.29-1.38 3.94-4 3.94-4l2.81-2.67c0 0 2.57-2.35 3.84-3.45-5.41-17.33-17.93-46.53-42.69-55.42h0.03q-2.75-0.98-5.6-1.59-8.62-3.63-18.4-3.63c-15.96 0-34.18 7.22-54.45 21.61z"/>
        </clipPath>
        <linearGradient id="g13" x2="1" gradientUnits="userSpaceOnUse" gradientTransform="matrix(121.109,0,0,70.763,35.3,93.431)">
            <stop offset="0" stop-color="#ab2088"/>
            <stop offset=".25" stop-color="#ec2993"/>
            <stop offset=".5" stop-color="#ed2951"/>
            <stop offset=".75" stop-color="#f05c28"/>
            <stop offset="1" stop-color="#f6be26"/>
        </linearGradient>
        <clipPath clipPathUnits="userSpaceOnUse" id="cp5">
            <path d="m20.67 29.85c1.17 1.22 3.42 3.54 3.42 3.54l3.75 3.8c0 0 2.35 2.33 3.48 3.38 25.69-15.11 47.37-19.79 64.6-13.94q1.39 0.77 2.73 1.63c27.52 17.93 32.95 62.5 33.99 82.29 1.36-2.21 4.28-6.39 4.28-6.39l2.3-3.07c0 0 2.67-3.31 4.05-4.87-3.18-20.95-12.24-56.24-38.06-70.58l0.02 0.02q-3.59-1.99-7.45-3.34-11.94-6.54-26.92-6.54c-14.64 0-31.41 4.69-50.19 14.07z"/>
        </clipPath>
        <linearGradient id="g14" x2="1" gradientUnits="userSpaceOnUse" gradientTransform="matrix(122.605,0,0,94.774,20.665,110.553)">
            <stop offset="0" stop-color="#ab2088"/>
            <stop offset=".25" stop-color="#ec2993"/>
            <stop offset=".5" stop-color="#ed2951"/>
            <stop offset=".75" stop-color="#f05c28"/>
            <stop offset="1" stop-color="#f6be26"/>
        </linearGradient>
        <linearGradient id="g15" x2="1" gradientUnits="userSpaceOnUse" gradientTransform="matrix(123.304,0,0,130.061,7.091,7.114)">
            <stop offset="0" stop-color="#ab2088"/>
            <stop offset=".25" stop-color="#ec2993"/>
            <stop offset=".5" stop-color="#ed2951"/>
            <stop offset=".75" stop-color="#f05c28"/>
            <stop offset="1" stop-color="#f6be26"/>
        </linearGradient>
    </defs>
    <style>
        .s0 { fill: url(#g1) }
        .s1 { fill: url(#g2) }
        .s2 { fill: url(#g3) }
        .s3 { fill: url(#g4) }
        .s4 { fill: url(#g5) }
        .s5 { fill: url(#g6) }
        .s6 { fill: url(#g7) }
        .s7 { fill: url(#g8) }
        .s8 { fill: url(#g9) }
        .s9 { fill: url(#g10) }
        .s10 { fill: url(#g11) }
        .s11 { fill: url(#g12) }
        .s12 { fill: url(#g13) }
        .s13 { fill: url(#g14) }
        .s14 { fill: #fefefe }
        .s15 { fill: url(#g15) }
    </style>
    <g id="Capa 1">
        <g id="&lt;Group&gt;">
            <g id="&lt;Group&gt;">
                <g id="&lt;Group&gt;">
                    <path id="&lt;Path&gt;" class="s0" d="m238.1 13.4c1.1-1.3 2.1-2.6 3-3.8-0.3-0.3-0.6-0.5-1-0.6-0.8-0.2-9.6-2.1-22.1-2.1-17 0-41.1 3.6-61.5 20.1l3 3.6c30.9-24.9 71.7-18.5 78.6-17.2z"/>
                    <path id="&lt;Path&gt;" class="s1" d="m238.1 13.4c1.1-1.3 2.1-2.6 3-3.8-0.3-0.3-0.6-0.5-1-0.6-0.8-0.2-9.6-2.1-22.1-2.1-17 0-41.1 3.6-61.5 20.1l3 3.6c30.9-24.9 71.7-18.5 78.6-17.2z"/>
                </g>
                <path id="&lt;Path&gt;" class="s2" d="m233 16.7c-0.9-0.3-13.4-4.2-30.1-4.2-12.3 0-26.8 2.1-40.9 9.3q-2.9 1.1-5.8 2.4c6.6-1.9 13.2-2.7 19.5-2.7 3.7 0 7.3 0.3 10.8 0.7 20.5-0.5 37.2 6.5 37.5 6.6 1-1 3-3 3-3l4.4-4.7c0 0 2-2.2 2.9-3.3-0.2-0.5-0.7-0.9-1.3-1.1z"/>
                <path id="&lt;Path&gt;" class="s3" d="m125.7 72.4q-4.4 11.7-6.9 25.8-1.5 8.3-2.4 17.5c-1.1-2.2-3.9-7-3.9-7l-1.9-3c0 0-2.3-3.4-3.7-5.1q3.1-16.1 8.3-29.1 2.8-7.2 6.2-13.4 0 0 0 0c1.5 4.1 2.8 8.2 3.8 12.3q0.2 1 0.5 2z"/>
                <path id="&lt;Path&gt;" class="s4" d="m148.6 32.1q-11.7 5.7-20.9 16.6 0 0 0 0c2.1 2.8 3.8 5.7 5.2 8.1q2.8-4.9 6-9.2c-1.4-1.8-2.8-3.5-2.8-3.5 0.9 0.6 2.1 1.9 3.1 3q7.2-9.4 16.3-15.9 1.1-0.8 2.3-1.5-2.9 0.3-5.7 0.9-1.8 0.7-3.5 1.5z"/>
                <path id="&lt;Path&gt;" class="s5" d="m157.8 29.7c24.6-2.4 47 12 50.3 14.2 1.2-1 3.5-3.1 3.5-3.1l4.6-4.3c0 0 2.2-2 3.2-3-0.2-0.4-0.5-0.8-0.9-1-0.9-0.5-14.2-7.9-32-10.3-7.3 0.2-14.9 1.3-22.6 3.9q-3.1 1.6-6.1 3.6z"/>
                <path id="&lt;Path&gt;" class="s6" d="m121.5 57.1q1.7-2.6 3.4-4.9c6.8-10.6 15.2-18.8 25-24.7q3.1-1.8 6.3-3.3-2.8 0.8-5.5 1.9-3.8 0.8-7.5 2.2c-21 7.8-37.1 27.8-48.1 59.6 1.3 1.2 3.7 3.5 3.7 3.5l2.3 2.5c0 0 2.5 2.8 3.7 4.1 4.1-16.3 15-44.3 14.9-44.5q0.9 1.6 1.8 3.6z"/>
                <path id="&lt;Path&gt;" class="s7" d="m156.2 24.2q-3.2 1.5-6.3 3.3c-9.8 5.9-18.2 14.1-25 24.7q1.4-1.8 2.8-3.5 0-0.1 0 0 9.2-10.9 20.9-16.6 1.7-0.8 3.5-1.5 2.8-0.6 5.7-0.9 3-2 6.1-3.6c7.7-2.6 15.3-3.7 22.6-3.9-3.5-0.4-7.1-0.7-10.8-0.7-6.3 0-12.9 0.8-19.5 2.7z"/>
                <path id="&lt;Path&gt;" class="s8" d="m156.2 24.2q-3.2 1.5-6.3 3.3c-9.8 5.9-18.2 14.1-25 24.7q1.4-1.8 2.8-3.5 0-0.1 0 0 9.2-10.9 20.9-16.6 1.7-0.8 3.5-1.5 2.8-0.6 5.7-0.9 3-2 6.1-3.6c7.7-2.6 15.3-3.7 22.6-3.9-3.5-0.4-7.1-0.7-10.8-0.7-6.3 0-12.9 0.8-19.5 2.7z"/>
                <g id="&lt;Clip Group&gt;" clip-path="url(#cp1)">
                    <path id="&lt;Path&gt;" class="s9" d="m82.2 27.1h121.3v58.4h-121.3z"/>
                </g>
                <g id="&lt;Clip Group&gt;" clip-path="url(#cp2)">
                    <path id="&lt;Path&gt;" class="s10" d="m67.4 28.3h119.7v46.6h-119.7z"/>
                </g>
                <g id="&lt;Clip Group&gt;" clip-path="url(#cp3)">
                    <path id="&lt;Path&gt;" class="s11" d="m51.2 27.3h119.7v53.3h-119.7z"/>
                </g>
                <g id="&lt;Clip Group&gt;" clip-path="url(#cp4)">
                    <path id="&lt;Path&gt;" class="s12" d="m35.3 22.7h121.1v70.7h-121.1z"/>
                </g>
                <g id="&lt;Clip Group&gt;" clip-path="url(#cp5)">
                    <path id="&lt;Path&gt;" class="s13" d="m20.7 15.8h122.6v94.8h-122.6z"/>
                </g>
                <path id="&lt;Path&gt;" class="s14" d=""/>
                <g id="&lt;Group&gt;">
                    <path id="&lt;Path&gt;" class="s15" d="m130.4 114.4c-1.9 3.5-4.9 10.8-4.9 10.8 0 0-2.7 8.8-3 11.1q-0.1 0.5-0.3 0.9c-0.1-2.8-0.6-8.2-3.2-15.3 0.3-6.4 0.3-14.6-0.2-23.6q0-0.1 0-0.1c-0.5-8.4-1.6-17.5-3.6-26.6q0 0 0-0.1-0.3-0.9-0.5-1.9 0 0 0-0.1c-1.1-4.6-2.5-9.2-4.1-13.7q0 0 0-0.1c-3.6-9.5-8.4-18.4-15.1-25.6q-0.1-0.1-0.1-0.1-0.2-0.2-0.4-0.4c-8.1-8.4-18.1-11.2-21-11.8q-0.2-0.1-0.3-0.1-0.1 0-0.1 0-0.1 0-0.2-0.1-0.1 0-0.1 0-0.2 0-0.2 0c-15.4-2.9-34.1 0-55.8 8.7-1.1-1.2-3.4-3.7-3.4-3.7l-3.4-3.7c0 0-2.2-2.5-3.4-3.8q23.8-8 43-8 5.8 0 11.2 0.7c0 0 28.9 1.6 47.8 27.1q0 0 0 0c3 3.9 5.5 8.1 7.7 12.5q0.1 0 0.1 0.1 2.4 4.9 4.3 10 0 0.1 0.1 0.1 0 0.3 0.1 0.5 0 0 0 0c1.5 4.1 2.8 8.2 3.8 12.3q0.2 1 0.5 2c3.7 15.8 4.6 31.3 4.7 42z"/>
                </g>
            </g>
        </g>
    </g>
</svg>