<svg id="svg" version="1.1" xmlns="http://www.w3.org/2000/svg" xmlns:xlink="http://www.w3.org/1999/xlink" width="400" height="358.3743842364532" viewBox="0, 0, 400,358.3743842364532"><g id="svgg"><path id="path0" d="M165.251 43.781 C 146.527 67.860,131.163 87.614,131.107 87.678 C 130.979 87.827,127.523 84.305,109.847 66.010 C 101.928 57.814,95.098 50.748,94.670 50.308 L 93.892 49.507 52.590 49.507 C 27.086 49.507,11.320 49.595,11.371 49.738 C 11.476 50.031,16.392 55.024,55.522 94.584 C 73.144 112.399,89.127 128.581,91.040 130.544 L 94.519 134.113 76.000 157.266 C 65.815 170.000,44.592 196.546,28.838 216.256 L 0.195 252.094 34.759 252.156 L 69.322 252.218 69.857 251.663 C 70.298 251.205,79.219 239.797,88.301 228.079 C 89.403 226.656,93.891 220.893,98.274 215.271 C 117.630 190.443,121.337 185.685,126.432 179.126 C 129.405 175.299,131.917 172.167,132.014 172.167 C 132.235 172.167,170.734 211.229,170.727 211.445 C 170.722 211.591,155.877 230.201,103.505 295.715 C 91.756 310.413,82.106 322.543,82.061 322.672 C 82.009 322.820,94.852 322.906,116.702 322.906 L 151.426 322.906 158.520 313.732 C 174.675 292.838,180.034 285.902,186.353 277.709 C 196.355 264.743,199.480 260.700,203.682 255.292 C 205.789 252.580,207.737 250.052,208.013 249.673 L 208.513 248.985 219.336 260.022 C 231.236 272.157,274.336 316.070,293.719 335.809 C 300.493 342.707,308.196 350.556,310.837 353.251 L 315.640 358.151 357.635 358.078 L 399.631 358.005 380.407 338.670 C 369.834 328.036,344.886 302.931,324.968 282.882 C 305.049 262.833,279.091 236.709,267.282 224.830 C 255.474 212.951,245.814 203.142,245.814 203.032 C 245.815 202.922,249.811 197.789,254.694 191.626 C 259.576 185.462,264.532 179.200,265.707 177.709 C 267.625 175.276,270.804 171.259,289.009 148.276 C 291.853 144.686,296.022 139.421,298.274 136.576 C 305.366 127.616,311.468 119.909,319.824 109.360 C 324.277 103.738,330.332 96.090,333.280 92.365 C 336.227 88.639,341.934 81.435,345.962 76.355 C 361.312 56.996,366.995 49.780,366.995 49.646 C 366.995 49.570,351.380 49.507,332.296 49.507 L 297.596 49.507 296.743 50.554 C 296.274 51.130,291.915 56.700,287.057 62.931 C 275.592 77.638,249.624 110.966,237.065 127.094 C 231.632 134.070,223.987 143.879,220.076 148.892 C 216.166 153.904,211.868 159.412,210.526 161.133 C 209.184 162.853,207.950 164.373,207.785 164.510 C 207.515 164.734,168.966 126.246,168.966 125.753 C 168.966 125.613,174.763 118.284,189.532 99.754 C 192.933 95.486,199.584 87.118,204.312 81.158 C 209.041 75.197,216.344 65.998,220.541 60.714 C 224.739 55.431,230.452 48.238,233.237 44.729 C 236.022 41.221,239.464 36.885,240.887 35.094 C 242.309 33.304,248.785 25.146,255.277 16.966 C 261.769 8.786,267.394 1.730,267.777 1.285 C 268.160 0.840,268.473 0.368,268.473 0.238 C 268.473 0.086,255.948 0.000,233.884 0.000 L 199.294 0.000 165.251 43.781 " stroke="none" fill="#fc040c" fill-rule="evenodd"></path><path id="path1" d="" stroke="none" fill="#100040c" fill-rule="evenodd"></path><path id="path2" d="" stroke="none" fill="#100040c" fill-rule="evenodd"></path><path id="path3" d="" stroke="none" fill="#100040c" fill-rule="evenodd"></path><path id="path4" d="" stroke="none" fill="#100040c" fill-rule="evenodd"></path></g></svg>