<svg version="1.2" xmlns="http://www.w3.org/2000/svg" viewBox="0 0 1302 1080" width="1302" height="1080">
    <title>isologo-austral-hor-ver</title>
    <style>
        .s0 { fill: #2e3090 }
    </style>
    <g id="Capa 1">
        <g id="&lt;Group&gt;">
        </g>
        <g id="&lt;Group&gt;">
            <path id="&lt;Compound Path&gt;" fill-rule="evenodd" class="s0" d="m148.6 1045.7q4-1.6 4.2-5.1 0.3-3.5-2.1-8.8l-21-48.8c-5.7-0.5-12-0.8-18.7-1q-10.1-0.3-18.7-0.3-9.2 0-19 0.3c-6.6 0.2-13 0.5-19.3 1l-17.8 43.6q-3.7 8.9-4 12.5-0.2 3.7 4 6.6h-36.2q7.9-5 12.9-17.3l62.1-155.5c1.5-3.8 2.5-6.6 3-8.4q0.6-2.6 0.6-3.6 0-2.1-1.9-5.9-2-3.8-5.7-4.3h42l74.7 177.4q2.9 6.8 6.6 11.6 3.6 4.7 7 6zm-57.6-155.7l-29.9 75q7.6 0.5 15.2 0.7c5 0.2 10 0.3 14.7 0.3q6.8 0 15.3-0.3 8.5-0.2 15.9-0.7z"/>
            <path id="&lt;Path&gt;" class="s0" d="m343.7 1045.7l-0.3-17.3q-10.7 11.5-25.1 17.6-14.5 6-29.9 6c-11.2 0-21.1-1.7-29.8-5q-13-5-21.9-14.4-8.9-9.4-13.5-22.8-4.6-13.4-4.6-29.9v-110.1q0-8.4-2.2-12.3c-1.5-2.7-3.5-4.9-6.1-6.8h55c-2.5 1.5-4.6 3.7-6.3 6.5q-2.6 4.2-2.6 12.6v99.1c0 7 0.5 14.1 1.6 21.2q1.6 10.8 6 19.2 4.5 8.4 12.7 13.7c5.4 3.6 12.5 5.4 21.1 5.4q10 0 18.5-3.7 8.4-3.7 14.5-9.3c4-3.7 7.2-7.9 9.5-12.4q3.4-6.8 3.4-13.4v-119.6q0-2-0.3-4.4-0.3-2.4-1.1-5-0.8-2.6-2.5-5.1c-1.2-1.7-2.8-3.3-4.8-4.8h54.6q-5.3 3.4-6.7 8.6-1.5 5.2-1.5 10.2v156.3q0 6.3 1.7 11.6 1.8 5.4 6.7 8.3z"/>
            <path id="&lt;Path&gt;" class="s0" d="m548.2 992.2q0 15.5-6.2 26.8-6.2 11.2-16.4 18.6-10.2 7.3-23.3 10.8-13.1 3.6-27 3.6-6 0-14.8-0.8-8.8-0.8-17.6-2.6-8.8-1.8-16.6-4.9-7.9-3-12.1-7.7-1.6-2.1-2.2-7-0.7-4.8-0.8-10.6-0.1-5.7 0-11.4 0.1-5.6 0.4-9 6 8.6 12.6 15.2 6.5 6.5 14 11.1 7.5 4.6 16.3 6.8 8.7 2.3 19.2 2.3 7.4 0 14.3-1.6 6.9-1.6 12.5-5.1 5.5-3.5 8.7-9.3 3.3-5.8 3.3-13.9 0-10-6.9-18.6-7-8.7-17.6-16.9-10.6-8.3-22.8-16.5-12.2-8.3-22.8-17.4c-7.1-6-12.9-12.4-17.6-19.2q-6.9-10.2-6.9-22.6 0-13.6 6.4-22.8 6.4-9.1 16.4-14.8 10-5.6 22-8 12.1-2.3 23.3-2.3c3.7 0 7.8 0.2 12.4 0.6q6.8 0.7 13.7 1.8 7 1.2 13.4 2.9 6.4 1.7 10.6 3.8l2.9 31.5q-7.6-9.2-21.1-15.6c-9-4.3-19-6.4-30-6.4q-5.8 0-11.7 1-5.9 1.1-10.6 3.6-4.7 2.5-7.7 6.8-3.1 4.3-3.1 10.6c0 6.1 2.4 11.8 7 16.9 4.6 5.2 10.4 10.2 17.3 15.1q10.3 7.3 22.4 14.8 12.1 7.5 22.4 16.4 10.4 8.9 17.3 19.6 7 10.8 7 24.4z"/>
            <path id="&lt;Path&gt;" class="s0" d="m745.8 848.8q-2.3 4-5.9 8.1-3.5 4.2-7.7 7.6-4.2 3.5-8.4 5.7-4.2 2.2-7.3 2.2-1.6 0-7.8-0.1-6.1-0.1-13.4-0.3-7.4-0.1-14.2-0.2c-4.5-0.1-7.7-0.2-9.4-0.2v154.7q0 6 1.9 11.1 2 5.2 6.7 8.3h-54.8q5.2-3.7 6.8-8.4 1.6-4.7 1.6-10.5v-155.2h-50.3q-6.1 0-12.2 1.1-6.2 1-11.4 3.9l8.6-25.9h136.1c6.8 0 13.6-0.3 20.6-0.7q10.3-0.7 20.5-1.2z"/>
            <path id="&lt;Compound Path&gt;" fill-rule="evenodd" class="s0" d="m950.6 1045.8c-9.4-0.1-34.1-0.1-41.1-0.1-10.2 0-17.7-1.6-22.7-5.4-2.9-2.2-7.6-7.5-15.1-17.7q-11.3-15.2-29.9-45.9-3.2-5.5-6.5-9.4-3.3-3.9-7.4-6.7-4.1-2.7-9.2-4-5.2-1.4-12-1.3v71.5q0 5.3 2.1 10.4 2.2 5.1 6.8 8.5h-55.1q8.4-6.3 8.4-16.3v-159.9q0-6-1.6-10.6-1.5-4.6-6.8-8.2h69.7q14.2 0 26.8 2.8 12.6 2.9 22 8.8 9.5 5.9 14.8 14.8 5.4 8.9 5.4 20.7 0 11.3-5.4 19.6-5.3 8.2-13.7 14-8.4 5.8-18.5 9.3-10.1 3.5-19.3 5.1 8.4-0.5 16.3 4.3 7.8 4.9 15.3 13 7.5 8.1 14.7 18.5 7.2 10.4 14.3 21.1 6.3 9.4 11.9 16.3 5.6 6.8 11 11.5c3.6 3.1 18.7 15.2 24.8 15.3zm-91.5-144.3q0-9.2-3.7-15.6-3.7-6.4-9.9-10.4c-4.1-2.6-8.7-4.5-13.9-5.7q-7.8-1.8-16.2-1.9-4.3 0-8.7 0.8v69.5q4.7 0.8 9.7 0.8 7.9 0 15.6-2.5 7.6-2.5 13.7-7.2 6-4.7 9.7-11.8 3.7-7.1 3.7-16z"/>
            <path id="&lt;Compound Path&gt;" fill-rule="evenodd" class="s0" d="m1092.2 1045.7q3.9-1.6 4.2-5.1 0.2-3.5-2.2-8.8l-20.9-48.8c-5.8-0.5-12-0.8-18.8-1q-10-0.3-18.7-0.3c-6.1 0-12.5 0.1-19 0.3q-9.9 0.3-19.3 1l-17.8 43.6q-3.7 8.9-3.9 12.5-0.3 3.7 3.9 6.6h-36.2q7.9-5 12.9-17.3l62.1-155.5q2.4-5.7 3-8.4 0.7-2.6 0.7-3.6 0-2.1-2-5.9-2-3.8-5.7-4.3h42l74.7 177.4q2.9 6.8 6.6 11.6 3.7 4.7 7 6zm-57.6-155.7l-29.9 75q7.6 0.5 15.2 0.7 7.6 0.3 14.7 0.3 6.8 0 15.3-0.3 8.5-0.2 15.8-0.7z"/>
            <path id="&lt;Path&gt;" class="s0" d="m1296.6 1045.7h-139.7c3-2.6 5-5.2 6.2-7.7q1.7-3.8 1.7-10.7v-157.8q0-5.5-1.3-9.9-1.3-4.5-7.1-8.9h54.5q-5.5 3.6-6.9 8.7-1.5 5.1-1.5 10.1v156.3q6.6 0.8 15.5 1.2 8.9 0.3 14.7 0.3 8.9 0 18.1-0.1 9.1-0.1 18.1-1c5.9-0.6 11.7-1.6 17.3-2.8q8.3-1.8 15.4-5.2z"/>
            <path id="&lt;Compound Path&gt;" fill-rule="evenodd" class="s0" d="m819.1 373.2l-1.6 2.1c-4 5.4-10 8.9-16.5 9.5-0.7 0.1-1.4 0.1-2.1 0.2 0.5 0.1 1 0.2 1.4 0.4 6.1 2.7 10.8 7.8 13.1 14.2l0.8 2.4-2.4 1.1c-3 1.5-6.4 2.2-9.7 2.2-3.2 0-6.4-0.7-9.3-2-2.1-0.9-3.9-2.1-5.6-3.5 3.1 3.6 5.1 8 5.6 12.8l0.3 2.7-2.6 0.5c-1.6 0.3-3.2 0.5-4.9 0.5-5 0-9.9-1.6-13.9-4.5-1.2-0.8-2.1-1.7-3-2.7 0.8 2.1 1.4 4.2 1.7 6.5l0.2 2.6-2.5 0.5q-2.3 0.5-4.7 0.5c-5.1 0-9.9-1.7-13.9-4.7-3.5-2.6-6-6.1-7.6-10.1l-0.2 0.2c-2.8 2.8-6.2 4.7-9.8 5.8-8.2 3-51.9 23.1-51.9 67.2 0 13.9 1.3 35.8 11.7 46.1 18.7 2.1 35.1 5.8 46.5 10.8 0.3 0.1 0.7 1 0.6 1.4-0.2 0.4-0.6 0.7-1 0.7q-15.7-5.2-31.9-5.3c-15 0-30.7 4.8-47.9 14.7l-0.5 0.1c-0.1 0-0.5-0.1-0.6-0.1-17.1-10.1-32.7-15-47.7-15-11 0-21.7 1.7-31.7 5h-0.1c-0.3 0-1.2-0.4-1.3-0.7-0.2-0.5 0.1-1.2 0.6-1.4 12.1-5 29.2-8.6 48.6-10.5 10.2-10.3 11.5-32 11.5-45.8-0.2-43.9-46.7-64.1-54.1-67q-0.4-0.1-0.8-0.2c-0.1-0.1-0.3-0.2-0.3-0.2h0.1c-4.2-1.5-7.8-4.2-10.5-7.9 0.4 6.1-1.3 12.2-5 17-4.2 5.2-10.3 8.4-17 8.8l-2.6 0.1-0.4-2.6c-0.4-2.6-0.3-5.1 0.2-7.7-2.2 2.5-4.8 4.4-7.7 5.8-3.1 1.4-6.3 2.2-9.7 2.2-3.2 0-6.4-0.7-9.4-2l-2.4-1 0.8-2.5c1.4-4.4 4-8.2 7.4-11-3.5 2.1-7.4 3.5-11.6 3.7h-0.9c-6.4 0-12.4-2.5-16.8-7.1l-1.8-1.9 1.7-2c2.7-3.2 6.3-5.5 10.2-7-2.9-0.2-5.6-0.9-8.2-2.2-5.9-3-10.3-8.4-12.1-14.9l-0.7-2.5 2.4-1c2.8-1 5.7-1.6 8.6-1.6 0.9 0 1.7 0.2 2.5 0.3-0.7-0.2-1.3-0.3-2-0.6-6.2-2.2-11.2-7-13.8-13.2l-1-2.5 2.3-1.2c3.5-1.9 7.3-2.8 11.2-2.8q1.9 0 3.7 0.3c-3.7-1.9-6.9-4.6-9.2-8.1-3.6-5.6-4.8-12.6-3.2-19.1l0.7-2.6 2.6 0.4c2.9 0.5 5.5 1.6 8 3-1.5-2.3-2.7-4.9-3.3-7.6-1.4-6.5-0.1-13.4 3.7-18.9l1.5-2.3 2.4 1.4c2.9 1.7 5.4 4 7.4 6.8-0.1-1.2-0.3-2.3-0.2-3.4 0.2-6.7 3.3-13 8.4-17.3l2.1-1.8 1.9 2c1.9 2 3.4 4.3 4.5 6.8-1.6-5.8-1-12 1.8-17.3l1.2-2.4 2.5 1c2.5 1.1 4.7 2.7 6.6 4.5-0.9-2.4-1.7-4.8-1.9-7.4-0.5-6.7 1.9-13.3 6.4-18.1l1.8-2 2.1 1.7c2.4 1.9 4.4 4.3 5.9 7 0.5-1.4 1.2-2.7 2-3.9l1.5-2.3 2.4 1.3c0.3 0.2 0.6 0.5 0.9 0.7-1-5.2-0.4-10.6 2-15.4l1.2-2.4 2.5 1c4.7 1.9 8.6 5.3 11.3 9.6-0.1-2.3 0-4.6 0.6-6.9 1.8-6.4 6.2-11.8 12.2-14.9l2.3-1.3 1.5 2.2c1.8 2.9 3 6 3.4 9.3 0.2-0.8 0.3-1.7 0.5-2.5 1.8-6.4 6.3-11.7 12.3-14.7l2.4-1.2 1.4 2.3c1.4 2.4 2.2 5 2.8 7.6 0.1-3.4 1-6.8 2.6-9.9l1.2-2.4 2.5 1.1c3.5 1.4 6.4 3.8 8.8 6.6 0-5.5 1.9-10.9 5.4-15.3l1.8-2 2.1 1.5c4.6 3.2 7.8 8.1 9.2 13.5 1.9-3.4 4.4-6.4 7.7-8.6l2.2-1.4 1.7 2.1c1.8 2.3 3 4.9 3.9 7.6 0.6-3.3 1.7-6.4 3.6-9.2l1.5-2.2 2.3 1.3c5.8 3.2 10 8.8 11.6 15.4 0.6 2.2 0.6 4.4 0.6 6.7 1.6-1.5 3.5-2.9 5.6-3.8l2.4-1.2 1.3 2.4c1.7 3 2.7 6.4 3 9.8 0.8-1.2 1.7-2.4 2.7-3.4l1.9-2 2.1 1.7c0.8 0.8 1.6 1.7 2.3 2.5 0-1-0.1-2.1 0-3.1 0.6-6.7 3.9-12.8 9.2-16.9l2.1-1.7 1.8 2c4.5 5 6.7 11.7 6.1 18.3-0.1 1.5-0.4 2.9-0.8 4.3 0.1-0.1 0.2-0.3 0.4-0.4 4-2.8 8.7-4.4 13.5-4.4 1.8 0 3.6 0.3 5.3 0.6l2.5 0.6-0.3 2.6c-0.3 2.2-1 4.3-1.8 6.2 3.1-1.5 6.5-2.3 10-2.3 1.9 0 3.8 0.3 5.6 0.7l2.6 0.6-0.4 2.6c-0.4 3.1-1.4 5.9-2.9 8.5 2.8-2.9 6.3-5.1 10.2-6.3l2.6-0.7 1 2.5c2.4 6.2 2.1 13.3-0.8 19.3-0.2 0.3-0.4 0.5-0.5 0.8l0.5 0.4c3.3 2.7 5.6 6.3 7 10.2 2.9-5 7.4-8.9 12.9-10.7l2.5-0.9 1.1 2.5c2.6 6.2 2.5 13.2-0.2 19.3-1 2.4-2.5 4.4-4.1 6.2 1.2-0.1 2.4-0.3 3.6-0.3 0.5 0 1 0 1.6 0.1l2.6 0.1 0.1 2.7c0.1 6.4-2.4 12.7-6.8 17.3 0.1 0 0.3-0.1 0.4-0.1 0.6 0 1.2 0 1.8 0.1l2.6 0.2v2.6c0.1 3.6-0.7 7.2-2.2 10.4 2.3-0.7 4.6-1.1 7-1.1 2.2 0 4.3 0.3 6.5 0.9l2.5 0.7-0.5 2.6c-0.8 4.2-2.6 7.9-5.2 11 0.5 0 0.9-0.1 1.4-0.1 2.3 0 4.6 0.4 6.8 1l2.5 0.8-0.5 2.6c-1.2 5.9-4.7 11.1-9.4 14.6 4.1 0.8 8 2.8 11.2 5.7zm-228.7-5.7l-13.1-5.2-5.1-13.1-5.2 13.1-13.1 5.2 13.1 5.2 5.2 13 5.1-13zm19.7-94.1l12.9 5.1 5.2 13 5.1-13 13-5.1-13-5.1-5.1-13-5.2 13zm94 127.9c-2.8 1.2-5.8 1.9-8.9 1.9-3.2 0-6.4-0.7-9.3-1.9l-2.5-1.1 0.9-2.5c0.3-1.1 0.8-2 1.3-3-2.9 1.2-5.9 2-9.1 2-2.9 0-5.8-0.6-8.5-1.6-0.4 0.6-0.8 1.2-1.2 1.8l-1.7 2-2.2-1.5c-2.1-1.5-3.8-3.3-5.3-5.3 0.2 0.4 0.5 0.8 0.6 1.2 2.2 6.4 1.6 13.2-1.6 19.3l-1.3 2.4-2.4-1.1c-6.1-2.7-10.8-7.9-13-14.2-0.3-1.1-0.5-2.2-0.7-3.3-2.1 4.2-5.4 7.8-9.6 10.2l-2.4 1.3-1.5-2.2c-2.5-3.8-3.7-8.3-3.9-12.7-3.9 3.6-8.8 5.7-14 6.1 17.2 9.1 42.2 23.8 50 36.5 8.5-13.9 30.3-26.2 46.3-34.3zm22.1-57.8l-13-5.1-5.1-13-5.1 13-13 5.1 13 5.1 5.1 13 5.1-13zm12.4-68.4l-13-5.2-5.1-12.9-5.1 12.9-13 5.2 13 5.1 5.1 13 5.1-13z"/>
            <path id="&lt;Compound Path&gt;" fill-rule="evenodd" class="s0" d="m493.1 157.1l-11.4-18 3.1-3.9 41.1 13.7q1.3 0.4 2.2 0.6 0.8 0.2 1.6-0.1 0.7-0.3 1.4-0.9c0.4-0.4 1-1 1.7-1.7l1.5 1.2-10.7 13.7-1.5-1.2 1.7-2.6q0.8-1.4 0.5-2.1-0.3-0.7-1.8-1.2l-13-4.3-9.3 11.9q2.1 3.3 4 6 1.9 2.8 3.8 5.4 0.8 1.2 1.5 1.3 0.6 0.1 1.7-1l2.4-2.5 1.5 1.2-9.1 11.7-1.5-1.2q0.9-1.3 1.3-2.2 0.4-0.9 0.4-1.7 0-0.9-0.4-1.8-0.4-0.9-1.2-2.1-2.6-4.3-5.7-9.3-3.2-5-5.8-8.9zm-0.2-5.9q2.8 4.4 5.8 8.8l8.3-10.7-19.4-6.6-0.1 0.2q2.6 4 5.4 8.3z"/>
            <path id="&lt;Path&gt;" class="s0" d="m503.9 115.1c0.5-0.4 1-0.6 1.5-0.7q0.8-0.2 1.6 0.1 0.9 0.2 2.2 0.8 4.2 1.9 8.9 4.2 4.8 2.2 9.6 4.7l20.6 10.1 3.5-3.4-10.2-22.8q-2.4-5.5-4.5-10.3-2-4.8-3-7.5-0.5-1.3-0.6-2.1c-0.1-0.5-0.1-1 0.1-1.5q0.2-0.7 0.7-1.4 0.5-0.7 1.5-1.7l-1.4-1.4-10.7 10.5 1.4 1.3 2.9-2.3q1.1-0.8 1.5-0.6 0.5 0.2 1.1 1.1 1.2 2 3.1 6c1.2 2.7 2.6 5.6 4.1 8.9l8.6 18.9-0.2-0.1-16.8-8q-4.2-2.1-8.4-4.1c-2.7-1.4-5.3-2.7-7.9-4.1q-1.2-0.6-1.4-1.1-0.1-0.6 0.6-1.5l2.3-2.8-1.4-1.4-12.5 12.3 1.4 1.4c0.7-0.6 1.3-1.1 1.8-1.5z"/>
            <path id="&lt;Path&gt;" class="s0" d="m549 86.5q1.6 2.1 3.6 3.2 2 1.1 4.4 1.4 2.3 0.3 4.9-0.1 2.7-0.4 5.4-1.2l1.2-0.3c0.7-0.2 1.8-0.4 2.9-0.6q1.8-0.2 3.7-0.1c1.3 0.1 2.6 0.3 3.8 0.9q1.9 0.7 3.2 2.6 2.7 3.6 2 7.2-0.6 3.5-4.3 6.1-3.9 2.9-8.4 1.9-4.6-0.9-9-4.9l-1.7 1.3 6.9 8.4q3.1 0.4 6.7-1 3.6-1.4 6.6-3.5 3.6-2.6 5.5-5.4 1.8-2.9 2.3-5.6 0.5-2.8-0.2-5.3-0.6-2.6-2.2-4.7-1.7-2.4-3.9-3.7-2.1-1.3-4.5-1.7-2.5-0.3-5.2 0.1-2.8 0.3-5.9 1.2l-2.1 0.6q-3.5 1-6.8 0.7-3.3-0.3-5.1-2.8-2.2-3-1.8-6.3c0.2-2.2 1.5-4.1 3.8-5.8q6.9-5 14.2 2.3l1.7-1.2-5.7-7.8q-2.2-0.1-5.2 1.2c-2 0.8-4 1.8-5.8 3.2q-2.5 1.8-4.3 4.1-1.8 2.3-2.7 4.8-0.8 2.6-0.3 5.3 0.3 2.8 2.3 5.5z"/>
            <path id="&lt;Path&gt;" class="s0" d="m620.4 81.4c-1 0.3-1.7 0.4-2.3 0.4q-0.8-0.1-1.3-0.8-0.5-0.7-1.1-2l-15.7-34.8 3.7-1.7q2.7-1.2 4.6-1.7 1.8-0.4 3.2 0.1 1.3 0.4 2.5 1.7 1.2 1.4 2.6 3.9l1.9-0.9-4.7-10.3-35.6 16.1 4.6 10.3 1.9-0.8c-0.6-1.8-1.1-3.3-1.2-4.5q-0.2-1.8 0.4-3.1 0.6-1.4 2.1-2.4 1.6-1.1 4.3-2.3l3.6-1.7 15.7 34.9q0.6 1.3 0.8 2.1c0.2 0.5 0.1 1-0.3 1.5-0.3 0.4-0.9 0.9-1.8 1.4q-1.3 0.8-3.7 2.1l0.8 1.7 19.8-8.9-0.8-1.7c-1.7 0.6-3.1 1.1-4 1.4z"/>
            <path id="&lt;Compound Path&gt;" fill-rule="evenodd" class="s0" d="m677.7 73.5v1.9l-5.4 0.1q-3.1 0.1-5-1.1-2-1.2-2.7-4.5-0.3-1.2-0.7-2.7-0.3-1.5-0.6-2.9c-0.2-1-0.4-1.9-0.6-2.7q-0.2-1.3-0.4-2-1-3.4-3.2-4.6-2.2-1.2-5.3-1.1l-4.7 0.1 0.4 15.8q0 1.4 0.2 2.2 0.1 0.8 0.8 1.2 0.6 0.4 1.8 0.6c0.8 0.1 2 0.1 3.5 0.2v2l-18.9 0.4-0.1-1.9q2.3-0.2 3.5-0.4 1.2-0.3 1.8-0.7c0.4-0.2 0.6-0.7 0.7-1.2q0-0.8 0-2.3l-0.9-34.2q0-1.4-0.1-2.2-0.1-0.8-0.7-1.2-0.7-0.5-1.9-0.6-1.1-0.1-3.5-0.3v-1.9l19.7-0.5c3-0.1 5.5 0.2 7.6 0.7q3 0.8 4.9 2.3 1.9 1.6 2.8 3.7 0.9 2.1 1 4.5 0.1 4.9-3 8-3 3.1-7.9 4.2l0.1 0.2q2.7 0.5 4.5 1.7 1.7 1.1 2.7 2.7 1 1.5 1.5 3.5 0.6 1.9 0.9 4.2 0.3 1.6 0.7 3.2 0.4 1.6 1.2 2.8 0.7 1.1 2 1.9 1.3 0.7 3.3 0.9zm-15.7-24.6q2.6-2.5 2.5-7.9-0.1-3-1.1-4.9-1.1-1.9-2.6-3-1.5-1-3.5-1.4-1.9-0.3-3.7-0.3-1.7 0.1-2.7 0.2-1 0.2-1.6 0.5-0.5 0.4-0.6 1.1-0.1 0.7-0.1 1.8l0.4 16.6 5.4-0.1q5-0.1 7.6-2.6z"/>
            <path id="&lt;Compound Path&gt;" fill-rule="evenodd" class="s0" d="m696.5 85.3l-13.2-6.8 0.8-1.7q1.5 0.6 2.5 0.9 0.9 0.2 1.8 0.1 0.8-0.2 1.6-0.8 0.7-0.6 1.9-1.5 3.7-3.4 8-7.4 4.3-4 7.7-7.3l15.5-14.6 4.5 2.3-5.8 42.9q-0.2 1.4-0.3 2.3 0 0.9 0.5 1.5c0.2 0.5 0.6 0.9 1.1 1.3q0.8 0.5 2 1.3l-0.8 1.8-15.6-8 0.9-1.7 2.9 1.1c1 0.4 1.7 0.5 2.2 0.2q0.6-0.4 0.8-2l1.8-13.6-13.5-6.9q-2.7 2.7-5.1 5.1-2.3 2.3-4.6 4.7-1 1-1 1.7 0 0.6 1.3 1.5l3 1.9zm9.3-18.5l12 6.2 2.9-20.3-0.3-0.1q-3.4 3.3-7.1 6.8c-2.5 2.4-5 4.9-7.5 7.4z"/>
            <path id="&lt;Path&gt;" class="s0" d="m766.6 119.4l-1.5-1.3q-2.6 2.2-4.6 3.1-2 0.8-3.8 0.6-1.8-0.2-3.5-1.3-1.8-1.1-3.8-2.8-2-1.7-3.3-2.9-1.3-1.3-1.8-2.3-0.5-1-0.1-2.1 0.4-1 2-2.9l20.9-24.9q0.9-1 1.5-1.6 0.7-0.5 1.4-0.4 0.8 0.1 1.9 0.8 1.1 0.7 3.1 2.1l1.2-1.5-14.8-12.4-1.2 1.4q1.6 1.7 2.4 2.6c0.5 0.5 0.9 1.1 1 1.6q0.2 0.7-0.3 1.4-0.4 0.6-1.3 1.7l-22.1 26.2q-0.9 1.1-1.5 1.7c-0.4 0.4-0.8 0.6-1.3 0.5-0.5-0.1-1.1-0.3-1.8-0.7q-1-0.6-2.9-2l-1.2 1.5 27 22.7z"/>
            <path id="&lt;Path&gt;" class="s0" d="m802.1 110.9q0.1 0.7-0.4 1.3-0.5 0.6-1.6 1.6l-25.3 23q-1.1 1-1.7 1.5-0.7 0.5-1.4 0.3-0.7-0.2-1.7-0.9-0.9-0.8-2.5-2.4l-1.5 1.3 12.8 14 1.4-1.3q-1.4-1.7-2.1-2.7-0.7-1.1-0.8-1.8-0.1-0.7 0.4-1.4 0.5-0.7 1.6-1.6l25.3-23.1q1.1-0.9 1.7-1.3 0.7-0.5 1.5-0.3 0.7 0.1 1.7 0.9 0.9 0.8 2.5 2.3l1.5-1.3-12.8-14-1.4 1.3q1.4 1.8 2.1 2.8c0.4 0.7 0.7 1.3 0.7 1.8z"/>
            <path id="&lt;Path&gt;" class="s0" d="m811.8 149.4q-0.3 2.4 0.1 5 0.5 2.6 1.2 5.3l0.3 1.2q0.3 1.2 0.6 2.9 0.2 1.8 0.1 3.8-0.1 1.9-0.9 3.8-0.8 1.8-2.6 3.2-3.7 2.6-7.2 1.9-3.5-0.6-6.2-4.3-2.8-3.9-1.8-8.5 0.9-4.5 4.9-8.9l-1.3-1.7-8.4 6.9q-0.4 3.1 1 6.7c0.9 2.4 2 4.6 3.5 6.5q2.6 3.7 5.4 5.6 2.8 1.8 5.6 2.4c1.8 0.3 3.6 0.2 5.3-0.2q2.5-0.7 4.7-2.3 2.4-1.7 3.7-3.8 1.3-2.2 1.7-4.6 0.3-2.4-0.1-5.2-0.3-2.8-1.2-5.8l-0.6-2.2q-1-3.5-0.7-6.8 0.4-3.3 2.9-5.1 3-2.1 6.2-1.8 3.3 0.4 5.8 3.9c3.3 4.6 2.5 9.3-2.3 14.1l1.2 1.7 7.8-5.6c0.1-1.4-0.3-3.2-1.1-5.2q-1.3-3-3.3-5.8-1.8-2.5-4.1-4.4-2.2-1.8-4.8-2.6-2.5-0.8-5.3-0.4-2.7 0.4-5.4 2.3-2.2 1.6-3.3 3.6-1.1 2-1.4 4.4z"/>
            <path id="&lt;Path&gt;" class="s0" d="m833.6 198.8l7.5 14.9 4.2-2.2-7.5-14.8z"/>
            <path id="&lt;Path&gt;" class="s0" d="m477.3 198.8l-4.3-2.1-7.5 14.8 4.2 2.2z"/>
            <path id="&lt;Path&gt;" class="s0" d="m604.8 631.6q-4-2.1-7.3-2.5-3.4-0.5-6.1 0.3-2.7 0.8-4.7 2.5-1.9 1.7-3.2 4.1-1.4 2.6-1.6 5.1-0.2 2.5 0.5 4.8 0.8 2.4 2.3 4.7 1.6 2.3 3.8 4.6l1.4 1.7q2.5 2.7 3.7 5.8 1.1 3.1-0.4 5.9-1.7 3.2-4.8 4.3c-2 0.8-4.3 0.5-6.9-0.9q-7.5-4-4.2-13.7l-1.8-1-4.5 8.5q0.9 2 3.3 4.2 2.5 2.2 5.5 3.8 2.7 1.4 5.6 2.1 2.8 0.6 5.5 0.2 2.6-0.4 4.9-2 2.3-1.6 3.9-4.5 1.2-2.3 1.3-4.7 0.1-2.2-0.7-4.5-0.7-2.2-2.3-4.4-1.5-2.2-3.4-4.3l-0.8-0.9c-0.5-0.6-1.1-1.4-1.8-2.4q-1-1.5-1.8-3.3c-0.5-1.2-0.8-2.4-0.8-3.8q-0.2-2 0.9-4 2.1-4 5.6-4.9 3.4-1 7.4 1.1 4.3 2.3 5.4 6.8 1.2 4.5-0.4 10.1l1.8 1 4.6-9.8q-1-3-3.9-5.6-2.8-2.7-6-4.4z"/>
            <path id="&lt;Path&gt;" class="s0" d="m572.2 611.9l-16.5-14-1.2 1.4q1.9 2 2.9 3.1 1.1 1.1 1.4 1.8 0.3 0.8-0.2 1.5-0.4 0.8-1.3 1.9l-24.7 29.1-3.1-2.6q-2.3-1.9-3.5-3.4-1.1-1.5-1.3-2.9-0.2-1.4 0.5-3.1 0.7-1.6 2.3-4l-1.5-1.3-7.3 8.6 29.8 25.3 7.3-8.6-1.5-1.3q-2 2-3.6 3-1.5 0.9-3 1-1.4 0-3-0.9-1.7-1-4-2.9l-3-2.6 24.7-29.1q0.9-1.1 1.6-1.6 0.6-0.6 1.5-0.4 0.8 0.1 2 1 1.3 0.8 3.5 2.5z"/>
            <path id="&lt;Path&gt;" class="s0" d="m525.9 566.2l-23.4 8.5q-5.7 2-10.6 3.7c-3.3 1.1-5.9 1.9-7.8 2.4q-1.3 0.4-2.1 0.4-0.8 0.1-1.5-0.1-0.6-0.3-1.3-0.9-0.7-0.6-1.6-1.6l-1.5 1.3 9.6 11.4 1.5-1.2-2.1-3.1q-0.7-1.1-0.5-1.6 0.2-0.5 1.1-0.9c1.5-0.7 3.5-1.6 6.3-2.6q4.1-1.6 9.2-3.5l19.4-7.2v0.2l-9.3 16.1q-2.4 4.1-4.7 8.1-2.3 3.9-4.6 7.6-0.7 1.1-1.3 1.3-0.5 0.1-1.5-0.7l-2.5-2.5-1.5 1.3 11.3 13.4 1.5-1.3q-0.9-1.1-1.4-1.9-0.5-0.8-0.6-1.6-0.1-0.7 0.2-1.6 0.3-0.8 1-2.1 2.2-4 4.8-8.6 2.7-4.5 5.4-9.2l11.6-19.8z"/>
            <path id="&lt;Compound Path&gt;" fill-rule="evenodd" class="s0" d="m467.3 559.4q-0.6 0.5-0.7 1.2-0.1 0.8 0.4 1.9 0.4 1.1 1.4 3.2l-1.6 0.9-11.5-19.4q-3-5.2-4.2-9.9-1.2-4.6-0.2-9.1 1.1-4.2 4-7.6 2.9-3.5 7.3-6.1 6.6-3.9 12-4.2 5.5-0.3 9.7 1.6 4.1 1.9 7.1 5.3c2 2.3 3.8 4.7 5.4 7.3l10.8 18.2-1.7 1c-0.9-1.3-1.6-2.2-2.1-2.8-0.5-0.6-0.9-1.1-1.4-1.3q-0.6-0.3-1.4 0-0.8 0.4-2 1.1l-29.5 17.5q-1.2 0.7-1.8 1.2zm26.1-23.4q1.7-1 2.6-1.8 0.9-0.9 1.1-1.9 0.1-1-0.4-2.3-0.6-1.3-1.7-3.2-2.2-3.6-4.8-6.3-2.7-2.6-6.2-3.6-3.5-1-7.8-0.1-4.4 0.8-9.9 4.1-3.7 2.2-6.5 4.9-2.6 2.6-3.9 5.9-1.3 3.2-0.8 7.2 0.5 4 3.2 8.7 1.4 2.4 2.2 3.7 1 1.3 1.7 1.8 0.7 0.5 1.5 0.3 0.8-0.3 2-0.9z"/>
            <path id="&lt;Path&gt;" class="s0" d="m437.6 498.8l31.6-13.2q1.3-0.6 2.1-0.8 0.8-0.3 1.4 0.1 0.7 0.5 1.3 1.5 0.6 1 1.6 3.1l1.8-0.8-7.3-17.4-1.8 0.7q0.7 2.1 1 3.3 0.3 1.2 0.2 1.9-0.1 0.8-0.8 1.2-0.8 0.4-2.1 1l-31.6 13.2c-0.8 0.4-1.5 0.6-2 0.7q-0.8 0.2-1.5-0.2c-0.4-0.2-0.8-0.7-1.3-1.4q-0.6-1.1-1.6-3.1l-1.8 0.8 7.3 17.4 1.8-0.7q-0.7-2.2-1-3.4-0.3-1.1-0.1-1.8c0.1-0.5 0.3-0.9 0.8-1.2q0.7-0.4 2-0.9z"/>
            <path id="&lt;Compound Path&gt;" fill-rule="evenodd" class="s0" d="m431.5 464.8q-4.8-0.3-8.5-2.2-3.8-2-6.4-5.7-2.7-3.6-4.1-9-1.4-5.5-0.8-10 0.6-4.4 3-7.9 4.6-7.2 15.9-10.1 5.5-1.4 10.3-1.1 4.8 0.3 8.5 2.3 3.8 1.9 6.4 5.5 2.7 3.6 4.2 9.1 1.3 5.4 0.7 9.9-0.6 4.4-2.9 8.1-2.4 3.4-6.4 6-4 2.5-9.6 4-5.6 1.4-10.3 1.1zm0.8-7.3q4-0.3 7.7-1.2 3.5-1 7.2-2.6 3.6-1.6 6.3-4 2.7-2.4 4-5.7 1.3-3.4 0.2-7.7-1.1-4.3-3.9-6.7-2.7-2.2-6.3-3.1-3.5-0.8-7.4-0.4-4 0.3-7.6 1.1-3.7 1.1-7.3 2.7-3.6 1.6-6.3 4-2.7 2.4-4 5.8-1.2 3.3-0.1 7.6 1.2 4.4 3.9 6.7 2.6 2.3 6.1 3.1 3.6 0.7 7.5 0.4z"/>
            <path id="&lt;Compound Path&gt;" fill-rule="evenodd" class="s0" d="m444.6 394l-34.2 2.2c-1 0-1.7 0.1-2.2 0.2-0.6 0.1-0.9 0.4-1.2 0.8q-0.4 0.6-0.5 1.8-0.1 1.2-0.1 3.5l-2 0.1-1.2-19.6q-0.3-4.5 0.4-7.6 0.6-3.1 2.1-5.1c1-1.2 2.2-2.2 3.5-2.9q2.1-0.9 4.6-1.1 4.8-0.3 8 2.6 3.2 2.9 4.5 7.7h0.2q0.4-2.7 1.5-4.5c0.8-1.2 1.6-2.2 2.6-2.9q1.5-1.1 3.4-1.7c1.3-0.4 2.7-0.7 4.2-1q1.7-0.4 3.2-0.8 1.6-0.5 2.7-1.3 1.2-0.8 1.9-2.1 0.7-1.4 0.7-3.3l2-0.1 0.3 5.4q0.2 3.1-0.9 5.1c-0.8 1.3-2.3 2.2-4.4 2.8-0.8 0.3-1.7 0.5-2.7 0.8q-1.5 0.4-2.9 0.7-1.4 0.4-2.7 0.7-1.2 0.3-2 0.5-3.3 1.1-4.4 3.3-1.1 2.3-0.9 5.4l0.3 4.7 15.7-1q1.4-0.1 2.3-0.3 0.8-0.1 1.2-0.8 0.3-0.6 0.4-1.9 0.1-1.2 0.1-3.4l2-0.1 1.2 18.8-2 0.2q-0.3-2.3-0.5-3.5-0.3-1.2-0.7-1.7-0.5-0.6-1.3-0.7-0.8 0-2.2 0.1zm-18.6-5.5l-0.3-5.4c-0.2-3.3-1.2-5.8-2.9-7.5q-2.6-2.5-8-2.1-3 0.2-4.8 1.2-1.9 1.1-2.9 2.7-1 1.6-1.3 3.5-0.3 2-0.1 3.8 0.1 1.7 0.3 2.7c0.1 0.7 0.3 1.2 0.6 1.5 0.2 0.3 0.6 0.6 1 0.6q0.7 0.1 1.8 0z"/>
            <path id="&lt;Path&gt;" class="s0" d="m404.5 343.4q0.3-0.9 0.7-1.5c0.3-0.4 0.8-0.8 1.3-1q0.9-0.3 2.2-0.7 4.5-1.2 9.6-2.5 5.1-1.2 10.4-2.4l22.4-5.2 0.5-4.8-22.3-11.2q-5.4-2.7-10-5.1-4.6-2.4-7.1-4-1.2-0.6-1.8-1.2-0.5-0.5-0.8-1.2-0.3-0.7-0.3-1.5-0.1-0.9 0-2.3l-1.9-0.2-1.7 14.8 1.9 0.2 0.8-3.6q0.3-1.3 0.8-1.5 0.5-0.1 1.5 0.2 2.2 0.8 6.2 2.7 4 2 8.8 4.3l18.6 9.2-0.2 0.1-18 4.4q-4.7 1-9.1 2.1-4.5 1-8.7 1.9-1.3 0.3-1.8 0-0.5-0.4-0.5-1.6v-3.5l-1.9-0.3-2 17.5 1.9 0.2q0.3-1.4 0.5-2.3z"/>
            <path id="&lt;Path&gt;" class="s0" d="m413.9 278.7q0.6-1.1 1.2-1.5 0.6-0.5 1.4-0.3 0.7 0.1 2.1 0.5l25.5 8.4q2.6 0.8 4.4 1.5 1.9 0.8 3.4 1.6 2 0.9 2.1 2.3 0.1 1.4-0.5 4l1.8 0.6 5-15.3-1.8-0.6q-1.3 3.1-2.2 4.3-0.9 1.2-3.1 0.7-1.7-0.2-3.6-0.7-2-0.5-4.5-1.4l-25.6-8.3v-0.2l43.4-4.2 0.6-1.8-32.5-29.2v-0.1l32.7 10.6q1.4 0.5 2.1 0.8 0.8 0.3 1 1.1 0.2 0.7 0 1.8-0.2 1.2-0.8 3.5l1.8 0.6 5.9-18-1.8-0.6q-0.9 2.1-1.5 3.2-0.5 1.1-1 1.5-0.6 0.5-1.4 0.3-0.9-0.1-2.2-0.6l-32.6-10.6c-0.9-0.3-1.5-0.5-2-0.8q-0.7-0.4-1-1-0.2-0.7 0-1.9 0.2-1.3 0.7-3.4l-1.8-0.6-4.2 12.9q3.8 3.1 7.4 6.3 3.6 3.3 7.2 6.6l14.9 13.5h-0.1l-19.7 2q-5 0.5-9.9 1.1-4.9 0.6-9.7 0.9l-4.3 13.1 1.8 0.6q0.9-2.1 1.4-3.2z"/>
            <path id="&lt;Path&gt;" class="s0" d="m843.1 267.8l25 0.7q6 0.2 11.2 0.5 5.2 0.2 8.1 0.6 1.3 0.1 2.1 0.3 0.8 0.3 1.3 0.8 0.6 0.4 1 1.2 0.4 0.8 0.9 2.1l1.8-0.6-4.7-14.2-1.9 0.6 0.9 3.7q0.2 1.3-0.2 1.6-0.3 0.4-1.3 0.4-2.4 0.3-6.8 0.2-4.4 0-9.9-0.2l-20.7-0.5 0.2-0.1 14.5-11.6c2.5-1.9 5-3.8 7.3-5.7q3.7-2.9 7.2-5.4 1-0.8 1.6-0.7 0.6 0 1.1 1.1l1.5 3.3 1.8-0.6-5.6-16.6-1.8 0.6q0.3 1.3 0.5 2.2 0.2 1 0 1.7-0.1 0.8-0.7 1.4-0.6 0.7-1.7 1.6-3.6 3-7.7 6.3-4.1 3.2-8.4 6.5l-18.1 14.2z"/>
            <path id="&lt;Path&gt;" class="s0" d="m894 290.5q-0.8 0.2-2.2 0.4l-26.5 4.2q-2.6 0.4-4.6 0.7-2.1 0.2-3.7 0.2-2.3 0-3-1.2-0.7-1.2-1.3-3.7l-1.9 0.2 2.5 15.8 1.9-0.3q-0.3-3.4 0-4.8 0.3-1.4 2.4-2.1c1-0.3 2.3-0.6 3.6-0.9q2-0.4 4.6-0.8l26.8-4.3v0.1q-9 8.9-17.9 17.6c-6 5.8-11.9 11.6-18 17.4l0.7 4.4 32.8-5.2q5.1-0.8 8.4-0.8 2.1-0.1 2.8 1.2 0.7 1.2 1.4 3.8l1.9-0.3-2.5-16-1.9 0.3q0.3 3.4 0 4.9c-0.2 0.9-1 1.6-2.4 2-2.1 0.7-4.8 1.3-8.2 1.9l-23.5 3.7 0.1-0.2q8.2-8.1 16.4-16 8.2-8 16.5-16l-2.1-12.8-1.9 0.3q0.2 2.3 0.2 3.5 0 1.2-0.3 1.9-0.3 0.7-1.1 0.9z"/>
            <path id="&lt;Path&gt;" class="s0" d="m902.6 349.9q-0.1 1.2-0.6 1.8-0.4 0.6-1.2 0.7-0.8 0.1-2.2 0.2l-34.2 0.5q-1.5 0.1-2.3 0-0.8-0.1-1.2-0.7-0.4-0.6-0.6-1.8-0.2-1.2-0.4-3.5l-2 0.1 0.3 18.9h2q0.1-2.2 0.3-3.5 0.1-1.2 0.5-1.8 0.4-0.7 1.2-0.8 0.9-0.1 2.3-0.2l34.2-0.5c1 0 1.7 0 2.2 0.1q0.8 0.1 1.3 0.7 0.4 0.6 0.6 1.8 0.2 1.2 0.4 3.5l2-0.1-0.3-18.9h-2q-0.1 2.3-0.3 3.5z"/>
            <path id="&lt;Path&gt;" class="s0" d="m903.6 393.7l1.9-17.5-1.9-0.2q-0.2 1.4-0.5 2.3-0.2 0.9-0.7 1.5-0.4 0.7-1.3 1-0.8 0.4-2.2 0.7c-3 0.8-6.2 1.7-9.5 2.5q-5.1 1.2-10.4 2.5l-22.4 5.2-0.5 4.8 22.3 11.2c3.6 1.8 7 3.5 10 5.1q4.6 2.4 7.1 3.9 1.2 0.7 1.8 1.2 0.6 0.6 0.9 1.2 0.3 0.7 0.3 1.6 0 0.8 0 2.3l1.9 0.2 1.6-14.9-1.9-0.2-0.7 3.6q-0.4 1.3-0.9 1.5-0.5 0.1-1.4-0.2-2.2-0.8-6.2-2.7c-2.7-1.3-5.7-2.7-8.9-4.3l-18.6-9.1 0.2-0.1 18-4.4c3.1-0.7 6.1-1.4 9.1-2.1q4.5-1.1 8.7-2 1.3-0.3 1.8 0 0.5 0.4 0.5 1.6v3.6z"/>
            <path id="&lt;Path&gt;" class="s0" d="m894.9 435.8q-0.5 1.1-1.1 1.6-0.5 0.5-1.3 0.4c-0.6-0.1-1.2-0.2-2.2-0.5l-33.1-8.8q-1.4-0.4-2.1-0.7-0.8-0.3-1-1-0.3-0.7-0.1-1.9 0.1-1.2 0.5-3.4l-1.8-0.5-9.3 34.7 11.1 3.8 0.5-2q-2.8-1.4-4.3-2.7-1.6-1.4-2.1-3.1-0.6-1.7-0.3-3.9c0.2-1.5 0.6-3.3 1.1-5.4q0.6-2.2 1.2-4 0.6-1.7 1.3-2.6 0.7-0.9 1.8-1 1.1 0 3.5 0.6l14.5 3.9-2.4 9.2q-0.6 2.1-1.2 3.2-0.6 1.1-1.5 1.6-0.9 0.4-2 0.3-1.1 0-2.7-0.2l-0.6 2 13.9 3.7 0.5-2q-1.5-0.7-2.5-1.2-1-0.5-1.5-1.3-0.5-0.8-0.5-2.1 0-1.2 0.6-3.4l2.4-9.1 15.8 4.2q1.7 0.4 1.9 0.9 0.3 0.5-0.1 2.2l-1.7 6.3q-0.8 2.8-1.6 4.5-0.8 1.7-2.1 2.6-1.2 0.8-3 0.9-1.8 0.1-4.4-0.2l-0.5 1.9 10.7 2.9 8.8-33.1-1.9-0.5q-0.7 2.1-1.2 3.2z"/>
            <path id="&lt;Compound Path&gt;" fill-rule="evenodd" class="s0" d="m881.9 482l1.8 0.7-7.8 18.2q-1.7 4.1-3.7 6.6-2 2.4-4.2 3.5-2.2 1.1-4.5 1-2.2-0.1-4.5-1-4.4-1.9-6-6-1.6-4.1-0.6-8.9l-0.1-0.1c-1.1 1.6-2.3 2.7-3.5 3.4q-1.7 1.1-3.6 1.4-1.8 0.3-3.8-0.1-1.9-0.3-4.1-0.9-1.7-0.4-3.3-0.7-1.6-0.3-3-0.1-1.4 0.2-2.6 1.1-1.2 0.8-2.2 2.5l-1.7-0.7 2.1-5q1.2-2.9 3.1-4.1c1.3-0.8 3-1.1 5.2-0.6 0.9 0.1 1.8 0.3 2.8 0.5q1.5 0.3 2.9 0.7 1.4 0.3 2.7 0.6 1.3 0.3 2 0.4 3.5 0.5 5.5-1 2-1.5 3.2-4.3l1.9-4.4-14.5-6.2q-1.4-0.5-2.2-0.7-0.8-0.2-1.4 0.2-0.6 0.4-1.3 1.4-0.6 1.1-1.6 3.1l-1.8-0.8 7.4-17.4 1.8 0.8q-0.7 2.1-1 3.3-0.3 1.2-0.2 1.9 0.1 0.7 0.9 1.1 0.7 0.4 2 1l31.5 13.4q1.3 0.6 2 0.8 0.8 0.3 1.4-0.1c0.5-0.3 0.9-0.8 1.3-1.5q0.7-1 1.7-3zm-6.3 12q-0.1-0.6-0.7-1-0.6-0.4-1.6-0.8l-15.3-6.5-2.1 4.9q-2 4.6-0.8 8 1.2 3.4 6.2 5.5c1.8 0.8 3.4 1.1 4.9 1q2.1-0.1 3.7-1 1.7-1 2.8-2.6 1.1-1.6 1.8-3.3 0.7-1.6 0.9-2.5 0.3-1 0.2-1.7z"/>
            <path id="&lt;Path&gt;" class="s0" d="m850.3 526.9q-2.3-1.4-4.6-1.6-2.3-0.2-4.5 0.5-2.3 0.6-4.6 2.1-2.2 1.4-4.4 3.2l-0.9 0.8q-1 0.7-2.5 1.7-1.5 0.9-3.4 1.6-1.8 0.7-3.8 0.7c-1.3 0-2.7-0.4-4-1.1q-3.9-2.3-4.7-5.8-0.8-3.5 1.5-7.3 2.5-4.2 7-5.2 4.6-0.9 10.1 0.9l1.1-1.8-9.6-5q-3 0.9-5.8 3.6-2.8 2.7-4.6 5.9-2.3 3.8-2.9 7.2-0.6 3.3 0.1 6 0.6 2.7 2.3 4.8 1.6 2 3.9 3.4 2.6 1.5 5.1 1.8 2.4 0.4 4.8-0.3 2.4-0.6 4.8-2.1c1.5-1 3.2-2.1 4.8-3.5l1.7-1.4q2.8-2.3 6-3.3 3.1-1 5.8 0.5 3.2 1.9 4.2 5 0.9 3.2-1.3 6.9-4.3 7.3-13.8 3.6l-1.1 1.8 8.3 4.9c1.3-0.6 2.8-1.7 4.3-3.2q2.3-2.3 4-5.3 1.6-2.7 2.3-5.5 0.8-2.8 0.5-5.5-0.3-2.7-1.7-5-1.5-2.4-4.4-4z"/>
            <path id="&lt;Path&gt;" class="s0" d="m834 571.3q-0.9 0.8-1.6 1-0.7 0.3-1.4-0.1c-0.5-0.3-1.1-0.7-1.8-1.3l-27.7-20.1q-1.1-0.9-1.8-1.4-0.6-0.6-0.5-1.3 0-0.8 0.6-1.8 0.5-1.1 1.7-3l-1.5-1.2-11.2 15.3 1.6 1.2c0.9-1.2 1.7-2 2.3-2.6q0.9-0.9 1.5-1.2 0.7-0.2 1.5 0.2 0.7 0.3 1.9 1.2l27.6 20.2q1.2 0.8 1.7 1.4 0.6 0.5 0.6 1.3c0 0.5-0.2 1.1-0.6 1.9q-0.6 1.1-1.7 2.9l1.5 1.2 11.2-15.3-1.6-1.2q-1.5 1.8-2.3 2.7z"/>
            <path id="&lt;Path&gt;" class="s0" d="m809.4 589.2q1.9 2.1 2.8 3.7 0.9 1.5 0.9 3c0 1-0.4 2-1 3.1q-1 1.6-3 3.8l-2.7 2.9-28.3-25.8q-1-0.9-1.5-1.6-0.5-0.6-0.3-1.5 0.2-0.8 1.1-2c0.6-0.8 1.4-1.9 2.6-3.4l-1.5-1.3-14.6 16 1.5 1.4q1.9-2 3.1-2.9 1.1-1 1.9-1.3 0.7-0.2 1.5 0.2 0.7 0.4 1.7 1.4l28.3 25.7-2.7 3q-2.1 2.3-3.6 3.4-1.5 1.1-2.9 1.2-1.5 0.2-3.1-0.6-1.6-0.8-3.8-2.5l-1.4 1.5 8.3 7.6 26.4-28.9-8.3-7.5z"/>
            <path id="&lt;Compound Path&gt;" fill-rule="evenodd" class="s0" d="m762 624.7l7 20.1-4 3.2-36.7-22.9c-0.8-0.5-1.5-0.9-2-1.2q-0.8-0.4-1.6-0.2-0.8 0.1-1.6 0.5-0.8 0.5-2.1 1.3l-1.2-1.5 13.7-10.9 1.2 1.5-2.3 2.2q-1.2 1.1-1 1.9 0.1 0.7 1.4 1.5l11.7 7.3 11.9-9.4q-1.4-3.7-2.6-6.8-1.2-3.1-2.4-6.1-0.5-1.4-1.1-1.6-0.6-0.3-1.9 0.5l-3 2-1.2-1.6 11.6-9.3 1.3 1.6q-1.3 1-1.9 1.8-0.6 0.8-0.8 1.6-0.2 0.8 0.1 1.8 0.2 1 0.6 2.3 1.6 4.8 3.4 10.4 1.9 5.6 3.5 10zm2.3 15.1c-1.1-3-2.3-6.1-3.4-9.3q-1.7-4.9-3.6-9.9l-10.6 8.4 17.4 11z"/>
            <path id="&lt;Path&gt;" class="s0" d="m726.9 654.4q-1.9-1.4-4.1-2-2.3-0.7-5-0.7-2.6 0-5.4 0.4l-1.2 0.1q-1.3 0.1-3.1 0.1c-1.2 0-2.4-0.2-3.6-0.5q-1.9-0.4-3.7-1.4-1.7-1.1-2.7-3.1-2.1-4-0.9-7.4 1.2-3.4 5.2-5.4 4.4-2.2 8.7-0.6 4.3 1.7 8 6.2l1.9-1-5.4-9.3q-3-0.9-6.8-0.1-3.8 0.8-7.1 2.5-4 2-6.2 4.5-2.3 2.5-3.3 5.1-0.9 2.7-0.6 5.3 0.3 2.6 1.5 5 1.4 2.6 3.3 4.3 1.9 1.5 4.2 2.3 2.4 0.7 5.2 0.8 2.8 0 5.9-0.4l2.3-0.3q3.6-0.4 6.8 0.4 3.2 0.9 4.6 3.6 1.7 3.3 0.8 6.5-0.9 3.1-4.7 5.1-7.6 3.9-13.6-4.4l-1.9 0.9 4.3 8.6q2.2 0.4 5.4-0.4 3.2-0.7 6.2-2.3c1.9-0.9 3.5-2 4.9-3.3q2.2-2 3.4-4.4 1.2-2.4 1.2-5.2 0-2.8-1.5-5.7-1.2-2.4-3-3.8z"/>
            <path id="&lt;Path&gt;" class="s0" d="m646.4 666.1l16.7 0.1v-4.7l-16.6-0.2z"/>
            <path id="&lt;Path&gt;" class="s0" d="m261.2 793.1v-41.6q0-1.3 0.4-2.7 0.4-1.4 1.7-2.3h-14.5q0.8 0.6 1.3 1.3 0.5 0.7 0.7 1.4c0.1 0.4 0.2 0.9 0.3 1.3q0.1 0.6 0 1.2v31.8q0 1.7-0.9 3.5c-0.6 1.2-1.4 2.3-2.5 3.3q-1.6 1.5-3.8 2.5-2.3 1-5 1-3.4 0-5.6-1.4-2.1-1.5-3.3-3.7c-0.8-1.5-1.4-3.2-1.6-5.1q-0.5-2.9-0.5-5.6v-26.4q0-2.2 0.7-3.3 0.7-1.2 1.7-1.8h-14.6q1 0.8 1.6 1.8 0.6 1.1 0.6 3.3v29.3q0 4.4 1.2 7.9 1.2 3.6 3.6 6.1 2.4 2.5 5.8 3.8 3.5 1.4 7.9 1.4 4.2 0 8-1.6 3.8-1.6 6.7-4.7v4.6h12.3q-1.3-0.8-1.8-2.2-0.4-1.4-0.4-3.1z"/>
            <path id="&lt;Path&gt;" class="s0" d="m344.2 748.4q0.6 1 0.6 2.4v31.4l-30.1-35.7h-9.9q1.3 1 1.7 2.1 0.5 1.1 0.5 2.9v42.2q0 1.4-0.4 2.5-0.4 1.1-1.8 2.2h10.3q-1.1-0.8-1.6-2.1-0.6-1.3-0.6-2.5v-17.7-17.6l33.7 39.9h4.1v-47.3q0-1.5 0.6-2.8 0.7-1.2 1.6-1.8h-10.3c0.7 0.6 1.2 1.2 1.6 1.9z"/>
            <path id="&lt;Path&gt;" class="s0" d="m407 748.7q0.5-1.3 1.9-2.2h-14.6c1 0.8 1.6 1.5 1.8 2.3q0.4 1.1 0.4 2.6v42.2q0 1.5-0.4 2.6-0.4 1.1-1.7 2.2h14.5q-1.1-0.8-1.7-2-0.6-1.2-0.6-2.6v-42.3q0-1.5 0.4-2.8z"/>
            <path id="&lt;Path&gt;" class="s0" d="m485.7 748.4q-0.1 1.2-1.1 3.8l-11.7 29.9-11.7-29q-1.2-3-1.4-4.5-0.2-1.4 1-2.1h-14.3q1.2 0.6 2.2 2.1 1.1 1.5 1.9 3.5l18.8 46.3h3.2l18-46.2q0.8-1.9 1.7-3.5c0.7-1 1.5-1.7 2.4-2.2h-9.9q1 0.8 0.9 1.9z"/>
            <path id="&lt;Path&gt;" class="s0" d="m562 793.3q-2.1 0.2-4.3 0.2h-4.5q-0.9 0-2 0-1.1-0.1-2.3-0.1-1.2 0-2.4-0.1-1.2-0.1-2-0.3v-19.7h12.4q0.6 0 1.6 0c0.6 0 1.3 0.1 2 0.2q1 0.1 1.9 0.4 1 0.2 1.5 0.6l-0.9-6.5q-2.2 0.3-4.5 0.4-2.3 0.1-4.7 0.2c-1.6 0-3.2 0-4.8 0q-2.4 0.1-4.5 0.1v-17.3h15.8q2 0 3.8 0.1 1.8 0.1 3.2 0.9l-0.7-5.9h-34.4q1.4 1 1.8 2.2 0.4 1.2 0.4 3v41.7q0 1.8-0.4 2.9-0.4 1-1.7 2.1h36.7l0.9-7.3q-1.9 1.1-3.8 1.6-2 0.5-4.1 0.6z"/>
            <path id="&lt;Compound Path&gt;" fill-rule="evenodd" class="s0" d="m655.8 796.4q1.4 0.9 2.9 1.4-2.8 0.4-5 0.7-2.1 0.2-4.9 0.2-1 0-1.8 0-0.8 0-1.5-0.2-0.6-0.2-1.3-0.5-0.6-0.3-1.4-0.9-1.2-0.8-4.2-4.8-3-4.1-8-12.2c-0.5-1-1.1-1.9-1.7-2.6q-0.9-1-1.9-1.7-1.1-0.8-2.5-1.1-1.4-0.4-3.2-0.4v19.1q0 1.4 0.6 2.7 0.6 1.4 1.8 2.3h-14.7q2.3-1.7 2.3-4.3v-42.6q0-1.6-0.5-2.8-0.4-1.2-1.8-2.2h18.6q3.7 0 7.1 0.8 3.3 0.7 5.8 2.3 2.6 1.6 4 3.9 1.4 2.4 1.4 5.6 0 3-1.4 5.2c-1 1.4-2.2 2.7-3.7 3.7q-2.2 1.5-4.9 2.5-2.7 0.9-5.1 1.3 2.2-0.1 4.3 1.2c1.4 0.8 2.8 2 4.1 3.4q2 2.2 3.9 4.9 1.9 2.8 3.8 5.7c1.1 1.6 2.2 3.1 3.2 4.3q1.5 1.8 2.9 3 1.4 1.3 2.8 2.1zm-24.1-29q1.6-1.2 2.6-3.1 0.9-1.9 0.9-4.3 0-2.4-0.9-4.1c-0.7-1.1-1.6-2.1-2.7-2.8q-1.6-1-3.7-1.5c-1.3-0.3-2.8-0.5-4.3-0.5q-1.1 0-2.3 0.2v18.5q1.3 0.2 2.6 0.2 2.1 0 4.1-0.6 2.1-0.7 3.7-2z"/>
            <path id="&lt;Path&gt;" class="s0" d="m724 772.4q-2.7-2.3-5.9-4.3-3.2-2-6-3.9-2.7-2-4.6-4.1-1.8-2-1.8-4.4 0-1.7 0.8-2.9 0.8-1.1 2-1.8 1.3-0.6 2.8-0.9 1.6-0.3 3.1-0.3 4.4 0 8 1.7 3.6 1.7 5.6 4.2l-0.7-8.4q-1.1-0.6-2.8-1c-1.2-0.3-2.4-0.6-3.6-0.8q-1.9-0.3-3.7-0.5-1.8-0.2-3.2-0.2c-2.1 0-4.1 0.3-6.2 0.7q-3.3 0.6-5.9 2.1c-1.8 1-3.2 2.3-4.4 3.9q-1.7 2.5-1.7 6.1 0 3.3 1.9 6c1.2 1.8 2.8 3.5 4.6 5.1q2.9 2.4 6.1 4.6 3.2 2.2 6.1 4.4 2.8 2.2 4.7 4.5 1.8 2.3 1.8 5 0 2.1-0.9 3.7-0.8 1.5-2.3 2.4-1.5 1-3.3 1.4-1.8 0.4-3.8 0.4c-1.9 0-3.6-0.2-5.1-0.6q-2.4-0.6-4.4-1.8-2-1.2-3.7-3-1.7-1.7-3.3-4-0.1 0.9-0.1 2.4-0.1 1.5 0 3 0 1.6 0.2 2.9 0.1 1.2 0.6 1.8c0.7 0.9 1.8 1.5 3.1 2.1q2.2 0.8 4.5 1.2 2.3 0.5 4.7 0.8 2.3 0.2 3.9 0.2 3.7 0 7.2-1 3.5-0.9 6.2-2.9 2.7-1.9 4.3-4.9c1.1-2 1.7-4.4 1.7-7.1q0-3.7-1.9-6.5-1.8-2.9-4.6-5.3z"/>
            <path id="&lt;Path&gt;" class="s0" d="m784 748.7q0.4-1.3 1.8-2.2h-14.5q1.5 1.1 1.8 2.3 0.4 1.1 0.4 2.6v42.2q0 1.5-0.4 2.6-0.5 1.1-1.7 2.2h14.4q-1-0.8-1.6-2-0.7-1.2-0.7-2.6v-42.3q0-1.5 0.5-2.8z"/>
            <path id="&lt;Compound Path&gt;" fill-rule="evenodd" class="s0" d="m875.1 761.7q2.4 5 2.4 11.7 0 5.9-2 10.5c-1.3 3.1-3.1 5.7-5.4 7.8q-3.5 3.3-8.3 5-4.8 1.7-10.5 1.7h-23.6q1.2-0.9 1.7-2 0.5-1.1 0.5-2.7v-42.1q0-2-0.5-3.1-0.5-1.2-1.7-2h19.2c4.1 0 8.1 0.6 11.8 1.7q5.6 1.7 9.8 5.1c2.8 2.3 4.9 5.1 6.6 8.4zm-8.4 11.2q0-4.9-1.5-9-1.4-4-4.2-6.9-2.8-2.8-6.9-4.4-4-1.5-9.2-1.5-1.2 0-2.5 0.1-1.2 0.1-2.5 0.3v41.7q1 0.1 2.3 0.2 1.2 0.2 2.7 0.2 1.4 0.1 2.9 0.1 1.4 0.1 2.7 0.1 4.4 0 7.5-1.9 3.1-1.8 5-4.8 1.9-2.9 2.8-6.7 0.9-3.7 0.9-7.5z"/>
            <path id="&lt;Compound Path&gt;" fill-rule="evenodd" class="s0" d="m965.2 796.8q1 1.2 1.9 1.6h-14q1.1-0.4 1.1-1.4c0.1-0.6-0.1-1.4-0.5-2.3l-5.6-13q-2.3-0.2-5-0.3-2.7 0-5 0c-1.6 0-3.3 0-5 0q-2.6 0.1-5.2 0.3l-4.7 11.6q-1 2.4-1 3.3-0.1 1 1 1.8h-9.6q2.1-1.3 3.4-4.6l16.5-41.4q0.6-1.5 0.8-2.2 0.2-0.7 0.2-1 0-0.5-0.5-1.5-0.6-1-1.5-1.2h11.1l19.9 47.2q0.8 1.8 1.7 3.1zm-19.1-19.9l-8.3-19.9-8 19.9c1.4 0.1 2.7 0.2 4.1 0.2q2 0.1 3.9 0.1 1.8 0 4-0.1 2.3-0.1 4.3-0.2z"/>
            <path id="&lt;Compound Path&gt;" fill-rule="evenodd" class="s0" d="m1054 773.4q0 5.9-1.9 10.5-2 4.6-5.5 7.8-3.5 3.3-8.3 5-4.7 1.7-10.5 1.7h-23.5q1.2-0.9 1.7-2 0.4-1.1 0.4-2.7v-42.1q0-2-0.5-3.1-0.5-1.2-1.7-2h19.2q6.3 0 11.8 1.7 5.6 1.7 9.8 5.1c2.8 2.3 5 5.1 6.6 8.4q2.4 5 2.4 11.7zm-10.8-0.5q0-4.9-1.4-9-1.5-4-4.3-6.9-2.8-2.8-6.8-4.4-4.1-1.5-9.3-1.5-1.2 0-2.4 0.1-1.3 0.1-2.5 0.3v41.7c0.6 0.1 1.4 0.1 2.2 0.2 0.9 0.1 1.8 0.2 2.7 0.2 1 0.1 1.9 0.1 2.9 0.1q1.5 0.1 2.7 0.1 4.5 0 7.5-1.9 3.1-1.8 5-4.8 1.9-2.9 2.8-6.7 0.9-3.7 0.9-7.5z"/>
        </g>
    </g>
</svg>